#Comment line ignore any data following # character 
#Hierarchical Translation and Rotation (.htr) file 
[Header]	
#Header keywords are followed by a single value 
FileType HTR		#Single word string
DataType HTRS		#Translation followed by rotation and scale data
FileVersion 1		#integer
NumSegments 84		#integer
NumFrames 2		#integer
DataFrameRate 30		#integer, data frame rate in this file
EulerRotationOrder ZYX
CalibrationUnits mm
RotationUnits Degrees
GlobalAxisofGravity Y
BoneLengthAxis Y
ScaleFactor 1.00
[SegmentNames&Hierarchy]
#CHILD	PARENT
MASTER GLOBAL
root MASTER
chest root
L_mid_tent01 root
R_mid_tent01 root
spine01 root
Bip01_Neck chest
L_humerus chest
R_humerus chest
weapon_bone chest
Bip01_Head Bip01_Neck
eye_left_bone Bip01_Head
eye_right_bone Bip01_Head
L_forearm L_humerus
L_front_hand L_forearm
L_weapon_bone L_forearm
L_front_hand01_01 L_front_hand
L_front_hand02_01 L_front_hand
L_front_hand03_01 L_front_hand
L_front_hand01_02 L_front_hand01_01
L_front_hand02_02 L_front_hand02_01
L_front_hand03_02 L_front_hand03_01
R_forearm R_humerus
R_front_hand R_forearm
R_weapon_bone R_forearm
R_front_hand01_01 R_front_hand
R_front_hand02_01 R_front_hand
R_front_hand03_01 R_front_hand
R_front_hand01_02 R_front_hand01_01
R_front_hand02_02 R_front_hand02_01
R_front_hand03_02 R_front_hand03_01
null_rope01_connect L_mid_tent01
Rope1_Seg01 null_rope01_connect
Rope1_Seg02 Rope1_Seg01
Rope1_Seg03 Rope1_Seg02
Rope1_Seg04 Rope1_Seg03
Rope1_Seg05 Rope1_Seg04
Rope1_Seg06 Rope1_Seg05
Rope1_Seg07 Rope1_Seg06
Rope1_Seg09 Rope1_Seg07
L_mid_hand01 Rope1_Seg09
L_mid_hand02 Rope1_Seg09
L_mid_hand03 Rope1_Seg09
null_rope02_connect R_mid_tent01
Rope2_Seg01 null_rope02_connect
Rope2_Seg02 Rope2_Seg01
Rope2_Seg03 Rope2_Seg02
Rope2_Seg04 Rope2_Seg03
Rope2_Seg05 Rope2_Seg04
Rope2_Seg06 Rope2_Seg05
Rope2_Seg07 Rope2_Seg06
Rope2_Seg09 Rope2_Seg07
R_mid_hand01 Rope2_Seg09
R_mid_hand02 Rope2_Seg09
R_mid_hand03 Rope2_Seg09
spine02 spine01
spine03 spine02
pelvis spine03
null_rope03_connect pelvis
null_rope04_connect pelvis
Rope3_Seg01 null_rope03_connect
Rope3_Seg02 Rope3_Seg01
Rope3_Seg03 Rope3_Seg02
Rope3_Seg04 Rope3_Seg03
Rope3_Seg05 Rope3_Seg04
Rope3_Seg06 Rope3_Seg05
Rope3_Seg07 Rope3_Seg06
Rope3_Seg08 Rope3_Seg07
Rope3_Seg09 Rope3_Seg08
R_rear_hand01 Rope3_Seg09
R_rear_hand02 Rope3_Seg09
R_rear_hand03 Rope3_Seg09
Rope4_Seg01 null_rope04_connect
Rope4_Seg02 Rope4_Seg01
Rope4_Seg03 Rope4_Seg02
Rope4_Seg04 Rope4_Seg03
Rope4_Seg05 Rope4_Seg04
Rope4_Seg06 Rope4_Seg05
Rope4_Seg07 Rope4_Seg06
Rope4_Seg08 Rope4_Seg07
Rope4_Seg09 Rope4_Seg08
L_rear_hand01 Rope4_Seg09
L_rear_hand02 Rope4_Seg09
L_rear_hand03 Rope4_Seg09
[BasePosition]
#SegmentName Tx, Ty, Tz, Rx, Ry, Rz, BoneLength
MASTER 0.000000 0.000000 0.000000 -90.000000 0.000000 0.000000 10.000000 
root 0.000000 0.000000 0.000000 0.000000 0.000000 0.000000 10.000000 
chest 0.000000 0.000000 0.000000 0.000000 0.000000 0.000000 10.000000 
L_mid_tent01 0.000000 0.000000 0.000000 0.000000 0.000000 0.000000 10.000000 
R_mid_tent01 0.000000 0.000000 0.000000 0.000000 0.000000 0.000000 10.000000 
spine01 0.000000 0.000000 0.000000 0.000000 0.000000 0.000000 10.000000 
Bip01_Neck 0.000000 0.000000 0.000000 0.000000 0.000000 0.000000 10.000000 
L_humerus 0.000000 0.000000 0.000000 0.000000 0.000000 0.000000 10.000000 
R_humerus 0.000000 0.000000 0.000000 0.000000 0.000000 0.000000 10.000000 
weapon_bone 0.000000 0.000000 0.000000 0.000000 0.000000 0.000000 10.000000 
Bip01_Head 0.000000 0.000000 0.000000 0.000000 0.000000 0.000000 10.000000 
eye_left_bone 0.000000 0.000000 0.000000 0.000000 0.000000 0.000000 10.000000 
eye_right_bone 0.000000 0.000000 0.000000 0.000000 0.000000 0.000000 10.000000 
L_forearm 0.000000 0.000000 0.000000 0.000000 0.000000 0.000000 10.000000 
L_front_hand 0.000000 0.000000 0.000000 0.000000 0.000000 0.000000 10.000000 
L_weapon_bone 0.000000 0.000000 0.000000 0.000000 0.000000 0.000000 10.000000 
L_front_hand01_01 0.000000 0.000000 0.000000 0.000000 0.000000 0.000000 10.000000 
L_front_hand02_01 0.000000 0.000000 0.000000 0.000000 0.000000 0.000000 10.000000 
L_front_hand03_01 0.000000 0.000000 0.000000 0.000000 0.000000 0.000000 10.000000 
L_front_hand01_02 0.000000 0.000000 0.000000 0.000000 0.000000 0.000000 10.000000 
L_front_hand02_02 0.000000 0.000000 0.000000 0.000000 0.000000 0.000000 10.000000 
L_front_hand03_02 0.000000 0.000000 0.000000 0.000000 0.000000 0.000000 10.000000 
R_forearm 0.000000 0.000000 0.000000 0.000000 0.000000 0.000000 10.000000 
R_front_hand 0.000000 0.000000 0.000000 0.000000 0.000000 0.000000 10.000000 
R_weapon_bone 0.000000 0.000000 0.000000 0.000000 0.000000 0.000000 10.000000 
R_front_hand01_01 0.000000 0.000000 0.000000 0.000000 0.000000 0.000000 10.000000 
R_front_hand02_01 0.000000 0.000000 0.000000 0.000000 0.000000 0.000000 10.000000 
R_front_hand03_01 0.000000 0.000000 0.000000 0.000000 0.000000 0.000000 10.000000 
R_front_hand01_02 0.000000 0.000000 0.000000 0.000000 0.000000 0.000000 10.000000 
R_front_hand02_02 0.000000 0.000000 0.000000 0.000000 0.000000 0.000000 10.000000 
R_front_hand03_02 0.000000 0.000000 0.000000 0.000000 0.000000 0.000000 10.000000 
null_rope01_connect 0.000000 0.000000 0.000000 0.000000 0.000000 0.000000 10.000000 
Rope1_Seg01 0.000000 0.000000 0.000000 0.000000 0.000000 0.000000 10.000000 
Rope1_Seg02 0.000000 0.000000 0.000000 0.000000 0.000000 0.000000 10.000000 
Rope1_Seg03 0.000000 0.000000 0.000000 0.000000 0.000000 0.000000 10.000000 
Rope1_Seg04 0.000000 0.000000 0.000000 0.000000 0.000000 0.000000 10.000000 
Rope1_Seg05 0.000000 0.000000 0.000000 0.000000 0.000000 0.000000 10.000000 
Rope1_Seg06 0.000000 0.000000 0.000000 0.000000 0.000000 0.000000 10.000000 
Rope1_Seg07 0.000000 0.000000 0.000000 0.000000 0.000000 0.000000 10.000000 
Rope1_Seg09 0.000000 0.000000 0.000000 0.000000 0.000000 0.000000 10.000000 
L_mid_hand01 0.000000 0.000000 0.000000 0.000000 0.000000 0.000000 10.000000 
L_mid_hand02 0.000000 0.000000 0.000000 0.000000 0.000000 0.000000 10.000000 
L_mid_hand03 0.000000 0.000000 0.000000 0.000000 0.000000 0.000000 10.000000 
null_rope02_connect 0.000000 0.000000 0.000000 0.000000 0.000000 0.000000 10.000000 
Rope2_Seg01 0.000000 0.000000 0.000000 0.000000 0.000000 0.000000 10.000000 
Rope2_Seg02 0.000000 0.000000 0.000000 0.000000 0.000000 0.000000 10.000000 
Rope2_Seg03 0.000000 0.000000 0.000000 0.000000 0.000000 0.000000 10.000000 
Rope2_Seg04 0.000000 0.000000 0.000000 0.000000 0.000000 0.000000 10.000000 
Rope2_Seg05 0.000000 0.000000 0.000000 0.000000 0.000000 0.000000 10.000000 
Rope2_Seg06 0.000000 0.000000 0.000000 0.000000 0.000000 0.000000 10.000000 
Rope2_Seg07 0.000000 0.000000 0.000000 0.000000 0.000000 0.000000 10.000000 
Rope2_Seg09 0.000000 0.000000 0.000000 0.000000 0.000000 0.000000 10.000000 
R_mid_hand01 0.000000 0.000000 0.000000 0.000000 0.000000 0.000000 10.000000 
R_mid_hand02 0.000000 0.000000 0.000000 0.000000 0.000000 0.000000 10.000000 
R_mid_hand03 0.000000 0.000000 0.000000 0.000000 0.000000 0.000000 10.000000 
spine02 0.000000 0.000000 0.000000 0.000000 0.000000 0.000000 10.000000 
spine03 0.000000 0.000000 0.000000 0.000000 0.000000 0.000000 10.000000 
pelvis 0.000000 0.000000 0.000000 0.000000 0.000000 0.000000 10.000000 
null_rope03_connect 0.000000 0.000000 0.000000 0.000000 0.000000 0.000000 10.000000 
null_rope04_connect 0.000000 0.000000 0.000000 0.000000 0.000000 0.000000 10.000000 
Rope3_Seg01 0.000000 0.000000 0.000000 0.000000 0.000000 0.000000 10.000000 
Rope3_Seg02 0.000000 0.000000 0.000000 0.000000 0.000000 0.000000 10.000000 
Rope3_Seg03 0.000000 0.000000 0.000000 0.000000 0.000000 0.000000 10.000000 
Rope3_Seg04 0.000000 0.000000 0.000000 0.000000 0.000000 0.000000 10.000000 
Rope3_Seg05 0.000000 0.000000 0.000000 0.000000 0.000000 0.000000 10.000000 
Rope3_Seg06 0.000000 0.000000 0.000000 0.000000 0.000000 0.000000 10.000000 
Rope3_Seg07 0.000000 0.000000 0.000000 0.000000 0.000000 0.000000 10.000000 
Rope3_Seg08 0.000000 0.000000 0.000000 0.000000 0.000000 0.000000 10.000000 
Rope3_Seg09 0.000000 0.000000 0.000000 0.000000 0.000000 0.000000 10.000000 
R_rear_hand01 0.000000 0.000000 0.000000 0.000000 0.000000 0.000000 10.000000 
R_rear_hand02 0.000000 0.000000 0.000000 0.000000 0.000000 0.000000 10.000000 
R_rear_hand03 0.000000 0.000000 0.000000 0.000000 0.000000 0.000000 10.000000 
Rope4_Seg01 0.000000 0.000000 0.000000 0.000000 0.000000 0.000000 10.000000 
Rope4_Seg02 0.000000 0.000000 0.000000 0.000000 0.000000 0.000000 10.000000 
Rope4_Seg03 0.000000 0.000000 0.000000 0.000000 0.000000 0.000000 10.000000 
Rope4_Seg04 0.000000 0.000000 0.000000 0.000000 0.000000 0.000000 10.000000 
Rope4_Seg05 0.000000 0.000000 0.000000 0.000000 0.000000 0.000000 10.000000 
Rope4_Seg06 0.000000 0.000000 0.000000 0.000000 0.000000 0.000000 10.000000 
Rope4_Seg07 0.000000 0.000000 0.000000 0.000000 0.000000 0.000000 10.000000 
Rope4_Seg08 0.000000 0.000000 0.000000 0.000000 0.000000 0.000000 10.000000 
Rope4_Seg09 0.000000 0.000000 0.000000 0.000000 0.000000 0.000000 10.000000 
L_rear_hand01 0.000000 0.000000 0.000000 0.000000 0.000000 0.000000 10.000000 
L_rear_hand02 0.000000 0.000000 0.000000 0.000000 0.000000 0.000000 10.000000 
L_rear_hand03 0.000000 0.000000 0.000000 0.000000 0.000000 0.000000 10.000000 
#Beginning of Data. Separated by tabs
#Fr	Tx	Ty	Tz	Rx	Ry	Rz	SF
[MASTER]
8 -0.000083 575.393066 2626.413574 0.001660 0.001660 0.001660 2688.703369
9 -0.000097 672.985168 2958.372803 0.001660 0.001660 0.001660 3033.954346
[root]
8 -16.502298 -38.627205 1488.837280 -91.502792 -6.347864 -90.266548 1489.429688
9 -16.502298 -47.823982 1494.625244 -91.474701 -5.601258 -90.441956 1495.481201
[chest]
8 -84.512650 -34.090519 0.000000 1.957378 6.583612 -146.200348 91.129311
9 -84.512650 -34.090519 0.000000 2.837415 7.026584 -139.982025 91.129311
[L_mid_tent01]
8 27.299076 22.179165 -249.918701 0.218615 25.686497 70.050308 252.381683
9 27.299078 22.179173 -249.918701 0.137213 29.069111 69.698463 252.381683
[R_mid_tent01]
8 23.228794 24.509907 226.238495 173.416000 -17.174404 58.715572 228.744751
9 23.228794 24.509907 226.238495 173.317276 -21.336603 59.004257 228.744751
[spine01]
8 -0.361383 -0.195265 0.000000 0.001954 0.001301 22.683720 0.410763
9 -0.361383 -0.195265 0.000000 0.001954 0.001300 22.745935 0.410763
[Bip01_Neck]
8 165.484543 71.581718 0.000119 176.643677 -1.657967 43.431911 180.302734
9 165.484543 71.581718 0.000119 176.643677 -1.657967 43.431911 180.302734
[L_humerus]
8 -13.983130 -135.272980 -120.471481 169.007965 49.762581 -95.486397 181.680161
9 -13.983130 -135.272980 -120.471481 166.254608 57.102455 -99.738533 181.680161
[R_humerus]
8 -13.983309 -135.273102 125.287651 -177.145706 -24.076021 -84.094780 184.909012
9 -13.983309 -135.273102 125.287651 -176.433578 -40.002567 -86.395355 184.909012
[weapon_bone]
8 235.964890 -300.705902 0.000000 0.000000 -89.951546 -128.212341 382.234833
9 235.964890 -300.705902 0.000000 0.000000 -89.951546 -128.212341 382.234833
[Bip01_Head]
8 213.442764 185.720535 11.714967 4.962490 2.797846 -43.898743 283.173401
9 213.442566 185.721268 11.706110 4.962490 2.797846 -43.898743 283.173340
[eye_left_bone]
8 -24.626970 125.451866 -64.772606 0.000000 -90.000000 -99.840431 143.318359
9 -24.626970 125.451866 -64.772606 0.000000 -90.000000 -99.840431 143.318359
[eye_right_bone]
8 -24.626970 125.451866 64.327362 0.000000 -89.965736 80.156380 143.117676
9 -24.626970 125.451866 64.327362 0.000000 -89.965736 80.156380 143.117676
[L_forearm]
8 322.776093 0.000000 -0.000119 0.000225 -0.002336 -100.995308 322.776093
9 322.776093 0.000000 -0.000119 0.000171 -0.002341 -98.367928 322.776093
[L_front_hand]
8 241.149185 -0.042021 -3.300071 -178.606796 -1.789088 -29.397432 241.171753
9 241.149185 -0.042021 -3.300071 -178.633957 -1.814054 -28.426769 241.171753
[L_weapon_bone]
8 156.183838 0.000000 0.000000 0.000014 0.000007 0.000001 156.183838
9 156.183838 0.000000 0.000000 0.000014 0.000007 0.000001 156.183838
[L_front_hand01_01]
8 86.095154 20.947098 -0.655860 -0.366594 -0.477154 75.385574 88.609184
9 86.095154 20.947098 -0.655860 -0.364720 -0.478588 74.936234 88.609184
[L_front_hand02_01]
8 86.935165 -11.437475 24.513514 154.399796 -59.883835 -61.369587 91.046425
9 86.935165 -11.437475 24.513514 153.708527 -59.690228 -60.568150 91.046425
[L_front_hand03_01]
8 86.637497 -14.123976 -20.424902 -153.913849 58.118122 -62.702866 90.126129
9 86.637497 -14.123976 -20.424902 -153.279221 57.922546 -61.955151 90.126129
[L_front_hand01_02]
8 71.020905 -0.000179 0.000030 0.000319 -0.002326 -105.599358 71.020905
9 71.020905 -0.000179 0.000030 0.000318 -0.002326 -105.568314 71.020905
[L_front_hand02_02]
8 71.020927 -0.000119 0.000060 0.000319 -0.002326 -105.599358 71.020927
9 71.020927 -0.000119 0.000060 0.000318 -0.002326 -105.568314 71.020927
[L_front_hand03_02]
8 71.020905 -0.000060 0.000060 0.000319 -0.002326 -105.599358 71.020905
9 71.020905 -0.000060 0.000060 0.000318 -0.002326 -105.568314 71.020905
[R_forearm]
8 322.776428 -0.000060 0.000030 0.211381 0.032486 -99.357323 322.776428
9 322.776428 -0.000060 0.000030 0.212467 0.020798 -96.809738 322.776428
[R_front_hand]
8 238.847015 -0.006795 2.210259 -2.200627 -10.743132 -28.643698 238.857239
9 238.847015 -0.006795 2.210259 -2.416564 -10.696334 -27.497139 238.857239
[R_weapon_bone]
8 155.664093 0.002503 -0.000030 0.003487 0.001180 -90.988930 155.664078
9 155.664093 0.002503 -0.000030 0.003487 0.001180 -90.988914 155.664078
[R_front_hand01_01]
8 87.624611 14.231146 22.918642 -154.633499 -59.950619 61.746044 91.683487
9 87.624611 14.231146 22.918642 -153.951385 -59.756760 60.953682 91.683487
[R_front_hand02_01]
8 89.356956 14.367283 -19.491137 154.602661 58.302849 63.744389 92.579636
9 89.356956 14.367283 -19.491137 153.963715 58.112652 62.995510 92.579636
[R_front_hand03_01]
8 87.286232 -22.307278 -0.143439 0.162155 -0.423168 -75.767921 90.091743
9 87.286232 -22.307278 -0.143439 0.156617 -0.426811 -75.329918 90.091743
[R_front_hand01_02]
8 71.020905 0.000060 0.000119 0.002323 -0.000334 106.381706 71.020905
9 71.020905 0.000060 0.000119 0.002323 -0.000334 106.381714 71.020905
[R_front_hand02_02]
8 71.020844 -0.000030 -0.000119 0.002323 -0.000334 106.381706 71.020836
9 71.020844 -0.000030 -0.000119 0.002323 -0.000334 106.381714 71.020836
[R_front_hand03_02]
8 71.020905 0.000000 0.000030 0.002323 -0.000334 106.381706 71.020905
9 71.020905 0.000000 0.000030 0.002323 -0.000334 106.381714 71.020905
[null_rope01_connect]
8 328.732483 0.000000 -0.000238 -153.767288 -62.780994 -179.821732 328.732483
9 328.732483 0.000000 -0.000238 -154.021912 -59.354469 179.989563 328.732483
[Rope1_Seg01]
8 -0.000036 0.000033 0.000133 166.055969 54.588310 -161.416901 0.000142
9 -0.000035 0.000033 0.000130 144.047409 49.284546 -179.615921 0.000139
[Rope1_Seg02]
8 139.999863 -0.000179 0.000000 9.494967 -9.731153 -3.483216 139.999863
9 139.999863 -0.000179 0.000000 8.072355 -8.717647 -5.727857 139.999863
[Rope1_Seg03]
8 139.999924 0.000060 -0.000060 8.472725 -14.266199 -1.115508 139.999924
9 139.999924 0.000060 -0.000060 10.156367 -14.528528 -6.363025 139.999924
[Rope1_Seg04]
8 139.999924 -0.000060 -0.000119 5.241536 -18.649210 2.386901 139.999924
9 139.999924 -0.000060 -0.000119 9.222017 -21.666903 -5.363790 139.999924
[Rope1_Seg05]
8 139.999832 0.000119 -0.000060 3.559094 -0.811908 -11.552499 139.999832
9 139.999832 0.000119 -0.000060 1.681178 -1.342991 -5.555396 139.999832
[Rope1_Seg06]
8 139.999954 0.000119 -0.000060 2.101132 1.490737 -7.396595 139.999954
9 139.999954 0.000119 -0.000060 0.435022 0.912434 -2.735153 139.999954
[Rope1_Seg07]
8 139.999985 0.000060 0.000000 1.503374 -0.515855 -2.790072 139.999985
9 139.999985 0.000060 0.000000 0.592627 -0.644488 -1.302453 139.999985
[Rope1_Seg09]
8 121.602913 0.000119 -0.000089 -89.793175 -1.359789 0.847147 121.602913
9 121.602913 0.000119 -0.000089 -89.793175 -1.359789 0.847147 121.602913
[L_mid_hand01]
8 103.859421 1.038730 8.195221 126.075401 -65.098549 -33.991913 104.187431
9 103.859421 1.038730 8.195221 122.214584 -62.281197 -29.682938 104.187431
[L_mid_hand02]
8 105.572853 -4.139662 -10.864139 -166.035263 42.723965 -69.273842 106.211075
9 105.572853 -4.139662 -10.864139 -163.055786 41.815422 -64.846161 106.211075
[L_mid_hand03]
8 104.641464 17.579376 -3.913581 -7.014418 17.452778 71.596474 106.179977
9 104.641464 17.579376 -3.913581 -8.059160 17.002192 68.062866 106.179977
[null_rope02_connect]
8 328.732849 0.000179 -0.000119 -117.616913 72.750832 23.930267 328.732849
9 328.732849 0.000179 -0.000119 -123.337662 69.002426 18.974670 328.732849
[Rope2_Seg01]
8 0.000043 0.000133 0.000000 -114.235641 61.559750 -11.176671 0.000140
9 0.000044 0.000130 0.000000 -101.719780 58.461391 -2.140769 0.000138
[Rope2_Seg02]
8 139.999741 -0.000060 -0.000119 -4.549675 0.949526 5.395859 139.999756
9 139.999741 -0.000060 -0.000119 -3.462158 0.037319 4.618215 139.999756
[Rope2_Seg03]
8 140.000107 0.000030 0.000000 -6.367177 1.403413 8.223351 140.000107
9 140.000107 0.000030 0.000000 -4.486365 -0.225806 6.715944 140.000107
[Rope2_Seg04]
8 139.999802 0.000000 -0.000060 -9.362665 -0.521697 16.085239 139.999802
9 139.999802 0.000000 -0.000060 -6.916461 -0.788198 12.615135 139.999802
[Rope2_Seg05]
8 139.999985 -0.000060 0.000119 -0.318606 -4.538844 2.459573 139.999985
9 139.999985 -0.000060 0.000119 -3.029856 -5.462265 8.872008 139.999985
[Rope2_Seg06]
8 139.999893 -0.000030 -0.000119 -0.266316 -1.177997 1.048007 139.999893
9 139.999893 -0.000030 -0.000119 -0.537412 -2.287229 2.466154 139.999893
[Rope2_Seg07]
8 139.999893 0.000060 -0.000060 -0.209978 -0.640013 0.700191 139.999893
9 139.999893 0.000060 -0.000060 -0.377817 -1.219346 1.726950 139.999893
[Rope2_Seg09]
8 121.338966 0.000089 -0.000060 33.793236 -1.359788 -0.847141 121.338966
9 121.338966 0.000089 -0.000060 33.793236 -1.359788 -0.847141 121.338966
[R_mid_hand01]
8 104.680779 11.144459 -10.335981 -17.548510 44.833435 68.572052 105.778534
9 104.680779 11.144459 -10.335981 -19.035425 44.336292 66.455589 105.778534
[R_mid_hand02]
8 104.070427 2.443552 8.231699 51.203640 -66.683899 36.975819 104.424065
9 104.070427 2.443552 8.231699 53.394081 -65.425781 34.575901 104.424065
[R_mid_hand03]
8 106.028137 -11.221827 -5.996406 -176.709671 15.475002 -75.137619 106.788818
9 106.028137 -11.221827 -5.996406 -176.276184 15.379540 -73.491829 106.788818
[spine02]
8 129.756927 0.001550 0.000119 -0.727173 -4.099109 2.522150 129.756927
9 129.756927 0.001550 0.000119 -0.882321 -4.016858 4.725445 129.756927
[spine03]
8 78.614044 0.081709 -4.898987 1.235862 4.288844 6.867345 78.766579
9 78.614044 0.081698 -4.898987 1.130694 4.221684 5.489599 78.766579
[pelvis]
8 169.435242 0.051022 0.000000 0.006900 -0.111890 -5.361431 169.435257
9 169.435242 0.051022 0.000000 0.012421 -0.151157 -8.140866 169.435257
[null_rope03_connect]
8 -1.257226 -2.466202 137.391083 -158.386703 -88.319954 -131.908310 137.418976
9 -1.257226 -2.466202 137.391083 -158.257568 -88.210526 -130.894180 137.418976
[null_rope04_connect]
8 -1.259640 -2.480268 -137.844437 -158.386703 -88.319954 -131.908310 137.872513
9 -1.259640 -2.480268 -137.844437 -158.257568 -88.210526 -130.894180 137.872513
[Rope3_Seg01]
8 0.000000 0.000000 0.000000 -138.214661 -20.828146 -56.155109 0.000000
9 0.000000 0.000000 0.000000 -141.562790 -25.986324 -53.908100 0.000000
[Rope3_Seg02]
8 139.999924 -0.000119 0.000060 2.943145 -10.023926 -10.321212 139.999924
9 139.999924 -0.000119 0.000060 2.346372 -9.437741 -11.567292 139.999924
[Rope3_Seg03]
8 139.999924 -0.000119 0.000119 3.947570 -8.629459 -7.869875 139.999924
9 139.999924 -0.000119 0.000119 3.273150 -8.142664 -8.910112 139.999924
[Rope3_Seg04]
8 139.999924 0.000119 0.000000 4.317867 -6.457335 -5.121242 139.999924
9 139.999924 0.000119 0.000000 4.738107 -6.421119 -5.466664 139.999924
[Rope3_Seg05]
8 139.999924 -0.000238 0.000060 4.000362 -5.351893 -5.056728 139.999924
9 139.999924 -0.000238 0.000060 1.996135 -4.365115 -5.521498 139.999924
[Rope3_Seg06]
8 139.999893 -0.000119 -0.000060 6.889002 -6.113381 -5.940799 139.999893
9 139.999893 -0.000119 -0.000060 -2.858142 -3.807173 -7.194578 139.999893
[Rope3_Seg07]
8 139.999771 0.000060 -0.000119 17.073410 -6.243706 -4.362671 139.999771
9 139.999771 0.000060 -0.000119 -9.468347 -3.317287 -6.573909 139.999771
[Rope3_Seg08]
8 139.999985 -0.000060 0.000000 34.301136 -5.392101 -1.735943 139.999985
9 139.999985 -0.000060 0.000000 -82.656364 -1.698903 -4.750530 139.999985
[Rope3_Seg09]
8 90.185997 -0.000179 -0.000060 89.793228 -1.359877 -0.847183 90.185997
9 90.185997 -0.000179 -0.000060 89.793228 -1.359877 -0.847183 90.185997
[R_rear_hand01]
8 103.366196 -6.073594 -10.757982 -176.918228 24.486242 -72.002144 104.101845
9 103.366196 -6.073594 -10.757982 -176.027405 24.361643 -69.845345 104.101845
[R_rear_hand02]
8 100.509819 12.039542 -7.992327 -14.131634 36.459908 70.059998 101.543350
9 100.509819 12.039542 -7.992327 -15.526566 35.959644 67.697319 101.543350
[R_rear_hand03]
8 101.539970 5.215704 5.435467 73.022980 -70.158020 19.886856 101.819031
9 101.539970 5.215704 5.435467 74.484848 -68.272499 18.324223 101.819031
[Rope4_Seg01]
8 0.000010 0.000033 -0.000133 62.166847 -25.207546 -134.976761 0.000138
9 0.000010 0.000033 -0.000130 68.188278 -31.764580 -137.044312 0.000135
[Rope4_Seg02]
8 139.999985 0.000060 0.000119 -2.756752 -9.455626 -8.515412 139.999985
9 139.999985 0.000060 0.000119 -0.967851 -11.186872 -7.173862 139.999985
[Rope4_Seg03]
8 139.999924 0.000000 -0.000238 -8.031198 -15.329659 -12.720512 139.999924
9 139.999924 0.000000 -0.000238 -4.200957 -16.259336 -10.603968 139.999924
[Rope4_Seg04]
8 139.999985 0.000000 0.000119 -81.169601 -15.697590 -18.255516 139.999985
9 139.999985 0.000000 0.000119 -28.345732 -15.848766 -9.001086 139.999985
[Rope4_Seg05]
8 139.999802 -0.000060 -0.000119 -33.546551 34.093163 -9.461003 139.999802
9 139.999802 -0.000060 -0.000119 -118.668900 -3.614799 -24.589825 139.999802
[Rope4_Seg06]
8 139.999924 0.000000 0.000060 -0.235430 16.931080 6.239995 139.999924
9 139.999924 0.000000 0.000060 4.739402 22.423782 13.445363 139.999924
[Rope4_Seg07]
8 139.999802 0.000000 0.000000 -0.282956 7.193907 2.095021 139.999802
9 139.999802 0.000000 0.000000 0.391954 10.424443 4.657289 139.999802
[Rope4_Seg08]
8 139.999924 0.000000 0.000119 -1.621086 3.673136 1.092849 139.999924
9 139.999924 0.000000 0.000119 -1.442129 5.071571 2.170803 139.999924
[Rope4_Seg09]
8 90.185791 0.000060 0.000060 -135.617828 2.228885 0.850567 90.185791
9 90.185791 0.000060 0.000060 -135.617828 2.228885 0.850567 90.185791
[L_rear_hand01]
8 101.696655 -8.392275 -7.654577 -17.565516 -35.113850 115.806488 102.329041
9 101.696655 -8.392275 -7.654577 -21.754822 -32.891220 123.292305 102.329041
[L_rear_hand02]
8 102.726799 -1.568258 5.773216 76.237793 65.389854 163.579773 102.900848
9 102.726799 -1.568258 5.773216 78.924988 58.957436 166.614059 102.900848
[L_rear_hand03]
8 104.552910 9.721220 -10.420293 -174.689285 -24.125307 -113.408821 105.519653
9 104.552910 9.721220 -10.420293 -171.809479 -23.347528 -120.557556 105.519653
